<svg xmlns="http://www.w3.org/2000/svg" viewBox="0 0 512 512">
  <rect width="512" height="512" fill="#030b1a"/>
  <!-- Outer glow -->
  <ellipse cx="256" cy="320" rx="120" ry="160" fill="#0033aa" opacity="0.3"/>
  <!-- Main flame -->
  <path d="M256,40
           C272,72 292,100 300,132
           C320,116 316,148 308,168
           C332,160 328,196 316,216
           C340,216 336,252 320,268
           C336,276 328,308 312,324
           C328,340 316,376 300,392
           C288,408 272,424 256,436
           C240,424 224,408 212,392
           C196,376 184,340 200,324
           C184,308 176,276 192,268
           C176,252 172,216 196,216
           C184,196 180,160 204,168
           C192,148 188,116 208,132
           C216,100 240,72 256,40Z"
        fill="url(#flameGrad)"/>
  <!-- Inner core -->
  <path d="M256,80
           C262,108 270,136 272,164
           C274,192 270,224 264,256
           C260,288 256,320 256,360
           C252,320 248,288 244,256
           C238,224 234,192 236,164
           C238,136 246,108 256,80Z"
        fill="url(#coreGrad)" opacity="0.7"/>
  <!-- Hot tip -->
  <ellipse cx="256" cy="52" rx="16" ry="22" fill="white" opacity="0.95"/>
  <ellipse cx="256" cy="46" rx="8" ry="12" fill="white"/>
  <defs>
    <linearGradient id="flameGrad" x1="256" y1="436" x2="256" y2="40" gradientUnits="userSpaceOnUse">
      <stop offset="0%" stop-color="#001577"/>
      <stop offset="25%" stop-color="#0044cc"/>
      <stop offset="55%" stop-color="#0099ff"/>
      <stop offset="78%" stop-color="#66ddff"/>
      <stop offset="100%" stop-color="#ffffff"/>
    </linearGradient>
    <linearGradient id="coreGrad" x1="256" y1="360" x2="256" y2="80" gradientUnits="userSpaceOnUse">
      <stop offset="0%" stop-color="#0055ee" stop-opacity="0"/>
      <stop offset="50%" stop-color="#44ccff" stop-opacity="0.6"/>
      <stop offset="100%" stop-color="#ffffff" stop-opacity="0.9"/>
    </linearGradient>
  </defs>
</svg>
